HIERARCHY
ROOT reference
{
  OFFSET 0 0 0
  CHANNELS 6 Xposition Yposition Zposition Zrotation Xrotation Yrotation
  JOINT root
  {
    OFFSET 0 88.2491 0
    CHANNELS 6 Xposition Yposition Zposition Zrotation Xrotation Yrotation
    JOINT Hips
    {
      OFFSET 0 0 0
      CHANNELS 6 Xposition Yposition Zposition Zrotation Xrotation Yrotation
      JOINT Spine
      {
        OFFSET -0.026468 -0.105484 -0.0042
        CHANNELS 6 Xposition Yposition Zposition Zrotation Xrotation Yrotation
        JOINT Spine1
        {
          OFFSET 4.85355 17.1934 5.02749
          CHANNELS 6 Xposition Yposition Zposition Zrotation Xrotation Yrotation
          JOINT Spine2
          {
            OFFSET 3.45713 17.0434 6.48957
            CHANNELS 6 Xposition Yposition Zposition Zrotation Xrotation Yrotation
            JOINT Neck
            {
              OFFSET 5.14071 15.5862 8.66938
              CHANNELS 6 Xposition Yposition Zposition Zrotation Xrotation Yrotation
              JOINT Head
              {
                OFFSET 4.15253 8.55481 6.52393
                CHANNELS 6 Xposition Yposition Zposition Zrotation Xrotation Yrotation
                End Site
                {
                  OFFSET 0 0 0
                }
              }
            }
            JOINT RightShoulder
            {
              OFFSET 3.29961 14.5422 11.6337
              CHANNELS 6 Xposition Yposition Zposition Zrotation Xrotation Yrotation
              JOINT RightArm
              {
                OFFSET -5.33341 -8.03212 12.8704
                CHANNELS 6 Xposition Yposition Zposition Zrotation Xrotation Yrotation
                JOINT RightForearm
                {
                  OFFSET -0.595387 -13.7862 25.9663
                  CHANNELS 6 Xposition Yposition Zposition Zrotation Xrotation Yrotation
                  JOINT RightHand
                  {
                    OFFSET 13.5169 -1.51998 20.8898
                    CHANNELS 6 Xposition Yposition Zposition Zrotation Xrotation Yrotation
                    End Site
                    {
                      OFFSET 0 0 0
                    }
                  }
                }
              }
            }
            JOINT LeftShoulder
            {
              OFFSET 6.99272 16.6182 5.71374
              CHANNELS 6 Xposition Yposition Zposition Zrotation Xrotation Yrotation
              JOINT LeftArm
              {
                OFFSET 6.71871 3.2473 -14.245
                CHANNELS 6 Xposition Yposition Zposition Zrotation Xrotation Yrotation
                JOINT LeftForearm
                {
                  OFFSET -8.81743 -14.5927 -23.9577
                  CHANNELS 6 Xposition Yposition Zposition Zrotation Xrotation Yrotation
                  JOINT LeftHand
                  {
                    OFFSET 10.5264 -21.3111 -7.51206
                    CHANNELS 6 Xposition Yposition Zposition Zrotation Xrotation Yrotation
                    End Site
                    {
                      OFFSET 0 0 0
                    }
                  }
                }
              }
            }
          }
        }
      }
      JOINT RightUpLeg
      {
        OFFSET -4.59323 -0.383103 8.37344
        CHANNELS 6 Xposition Yposition Zposition Zrotation Xrotation Yrotation
        JOINT RightLeg
        {
          OFFSET 10.208 -39.0448 19.9625
          CHANNELS 6 Xposition Yposition Zposition Zrotation Xrotation Yrotation
          JOINT RightFoot
          {
            OFFSET -4.84363 -40.8753 1.15034
            CHANNELS 6 Xposition Yposition Zposition Zrotation Xrotation Yrotation
            JOINT RightToe
            {
              OFFSET 9.7367 -6.85346 13.5043
              CHANNELS 6 Xposition Yposition Zposition Zrotation Xrotation Yrotation
              End Site
              {
                OFFSET 0 0 0
              }
            }
          }
        }
      }
      JOINT LeftUpLeg
      {
        OFFSET 4.59322 0.383103 -8.37344
        CHANNELS 6 Xposition Yposition Zposition Zrotation Xrotation Yrotation
        JOINT LeftLeg
        {
          OFFSET 5.42519 -42.6873 -13.2501
          CHANNELS 6 Xposition Yposition Zposition Zrotation Xrotation Yrotation
          JOINT LeftFoot
          {
            OFFSET -11.095 -37.6883 -12.3315
            CHANNELS 6 Xposition Yposition Zposition Zrotation Xrotation Yrotation
            JOINT LeftToe
            {
              OFFSET 16.3568 -7.51904 0.239315
              CHANNELS 6 Xposition Yposition Zposition Zrotation Xrotation Yrotation
              End Site
              {
                OFFSET 0 0 0
              }
            }
          }
        }
      }
    }
  }
}
MOTION
Frames:	6
Frame Time:	0.0333333
8.07495 0 40.495 0 0 -0 0.4734 83.4693 -0.22127 -6.4777 14.5216 9.15892 2e-06 7.6294e-06 9.99999e-07 0.700186 1.30338 -0.48861 -0.026468 -0.105484 -0.0042 1.76001 1.63101 2.16108 4.85355 17.1934 5.02749 2.26075 1.70154 0.861881 3.45713 17.0434 6.48957 1.6135 1.1365 0.408125 5.14071 15.5862 8.66938 4.30376 -4.29203 1.62594 4.15253 8.55481 6.52393 4.41883 -9.70918 4.69595 3.29961 14.5422 11.6337 -3.12616 -17.7474 5.11172 -5.33341 -8.03212 12.8704 -2.41219 -18.2927 -17.8858 -0.595387 -13.7862 25.9663 -1.55542 2.18494 -3.10345 13.5169 -1.51998 20.8898 27.1616 41.886 6.45349 6.99272 16.6182 5.71374 1.54705 -5.25343 9.31978 6.71871 3.2473 -14.245 36.3257 27.4827 11.1161 -8.81743 -14.5927 -23.9577 -13.2634 12.5068 12.5448 10.5264 -21.3111 -7.51206 0.218792 -1.53003 0.184428 -4.59323 -0.383103 8.37344 13.237 -22.904 -0.563188 10.208 -39.0448 19.9625 -18.4768 23.1657 0.505668 -4.84363 -40.8753 1.15034 8.93732 -15.1916 -1.05824 9.7367 -6.85346 13.5043 2.90647 1.70424 0.0723379 4.59322 0.383103 -8.37344 -4.76346 -9.45903 3.61227 5.42519 -42.6873 -13.2501 21.2323 -2.06635 -6.41855 -11.095 -37.6883 -12.3315 -14.0178 -15.4301 5.42665 16.3568 -7.51904 0.239315 -0.58802 1.17559 0.0106054 
8.30748 0 40.4583 0 0 -0 0.927102 84.0898 0.000185 -6.50953 11.6136 8.8333 2e-06 7.6294e-06 9.99999e-07 2.04176 3.7248 -1.44693 -0.026468 -0.105484 -0.0042 1.70952 1.95041 3.07307 4.85355 17.1934 5.02749 1.80478 1.58625 0.270681 3.45713 17.0434 6.48957 1.25877 1.06017 0.0413104 5.14071 15.5862 8.66938 4.20355 -4.12491 1.74297 4.15253 8.55481 6.52393 4.37404 -9.32538 4.79986 3.29961 14.5422 11.6337 -2.70115 -17.0459 5.35617 -5.33341 -8.03212 12.8704 -4.17145 -21.5087 -15.4557 -0.595387 -13.7862 25.9663 -3.1819 4.76731 -6.56867 13.5169 -1.51998 20.8898 25.308 39.8601 6.02245 6.99272 16.6182 5.71374 1.67727 -4.93525 9.31256 6.71871 3.2473 -14.245 32.0821 23.6754 11.5643 -8.81743 -14.5927 -23.9577 -14.488 13.3882 13.7163 10.5264 -21.3111 -7.51206 -0.180665 -1.90254 -1.24867 -4.59323 -0.383103 8.37344 11.9285 -21.441 1.40064 10.208 -39.0448 19.9625 -17.5007 22.0361 0.29028 -4.84363 -40.8753 1.15034 8.16875 -14.8961 -2.37421 9.7367 -6.85346 13.5043 3.26748 0.954351 0.16283 4.59322 0.383103 -8.37344 -4.16136 -9.94295 9.66999 5.42519 -42.6873 -13.2501 21.2325 -2.06475 -6.41854 -11.095 -37.6883 -12.3315 -13.9862 -12.9714 5.90718 16.3568 -7.51904 0.239315 -0.627593 0.756938 0.0159147 
8.24824 0 39.0377 0 0 -0 1.05637 84.7291 1.13489 -6.54628 9.72185 8.74363 2e-06 7.6294e-06 9.99999e-07 2.74797 4.95917 -1.96222 -0.026468 -0.105484 -0.0042 1.70522 2.04022 3.49053 4.85355 17.1934 5.02749 1.61541 1.45552 -0.0100455 3.45713 17.0434 6.48957 1.10798 0.971681 -0.134142 5.14071 15.5862 8.66938 3.99429 -3.92552 1.63708 4.15253 8.55481 6.52393 4.16565 -8.87219 4.49649 3.29961 14.5422 11.6337 -2.38164 -16.4797 5.52822 -5.33341 -8.03212 12.8704 -4.17121 -22.2517 -14.4589 -0.595387 -13.7862 25.9663 -3.84328 5.92264 -8.06031 13.5169 -1.51998 20.8898 24.331 38.5191 5.55525 6.99272 16.6182 5.71374 1.60922 -4.71853 8.98861 6.71871 3.2473 -14.245 30.9207 22.2914 10.8403 -8.81743 -14.5927 -23.9577 -15.1493 13.8474 14.3495 10.5264 -21.3111 -7.51206 0.114464 -2.19268 -0.517287 -4.59323 -0.383103 8.37344 10.8941 -20.088 1.93114 10.208 -39.0448 19.9625 -16.2525 20.566 0.0440176 -4.84363 -40.8753 1.15034 7.42925 -14.218 -2.93124 9.7367 -6.85346 13.5043 3.24113 0.67325 0.191066 4.59322 0.383103 -8.37344 -4.4525 -9.42377 10.3221 5.42519 -42.6873 -13.2501 21.2434 -2.06641 -6.42161 -11.095 -37.6883 -12.3315 -13.7372 -13.7427 5.65069 16.3568 -7.51904 0.239315 -0.633364 0.695832 0.0168566 
8.42957 0 37.9995 0 0 -0 1.11311 86.3774 1.16496 -6.23934 6.535 8.30481 2e-06 7.6294e-06 9.99999e-07 3.58301 6.38289 -2.58039 -0.026468 -0.105484 -0.0042 1.55845 2.00789 3.77739 4.85355 17.1934 5.02749 1.2221 1.20373 -0.350448 3.45713 17.0434 6.48957 0.813594 0.802366 -0.334718 5.14071 15.5862 8.66938 3.74696 -3.56933 1.30142 4.15253 8.55481 6.52393 4.03879 -8.16283 3.73665 3.29961 14.5422 11.6337 -1.52645 -14.6249 5.85936 -5.33341 -8.03212 12.8704 -2.71251 -22.388 -12.9766 -0.595387 -13.7862 25.9663 -4.83048 7.78442 -10.4003 13.5169 -1.51998 20.8898 21.339 34.5098 3.77692 6.99272 16.6182 5.71374 1.65534 -3.72584 8.20279 6.71871 3.2473 -14.245 27.8816 19.9375 9.50717 -8.81743 -14.5927 -23.9577 -14.599 13.4661 13.8225 10.5264 -21.3111 -7.51206 0.776706 -2.40526 1.38964 -4.59323 -0.383103 8.37344 8.38517 -16.7247 0.866145 10.208 -39.0448 19.9625 -12.6533 16.1862 -0.477442 -4.84363 -40.8753 1.15034 5.56021 -11.5928 -2.59131 9.7367 -6.85346 13.5043 2.56039 -0.283816 0.236627 4.59322 0.383103 -8.37344 4.21295 -7.07666 5.40435 5.42519 -42.6873 -13.2501 0.012776 -0.000516899 -0.00403088 -11.095 -37.6883 -12.3315 -3.91457 -17.0549 1.40031 16.3568 -7.51904 0.239315 -0.777705 0.0233295 0.0177293 
8.58739 0 36.3012 0 0 -0 1.0539 87.3013 2.39939 -5.92682 5.15926 7.85747 2e-06 7.6294e-06 9.99999e-07 3.74987 6.66271 -2.70498 -0.026468 -0.105484 -0.0042 1.4195 1.89612 3.79765 4.85355 17.1934 5.02749 1.01543 1.06522 -0.308275 3.45713 17.0434 6.48957 0.675467 0.710551 -0.290686 5.14071 15.5862 8.66938 3.43842 -3.17496 0.903907 4.15253 8.55481 6.52393 3.8132 -7.37183 2.87311 3.29961 14.5422 11.6337 -1.10457 -13.308 5.85106 -5.33341 -8.03212 12.8704 -0.796445 -21.3799 -13.204 -0.595387 -13.7862 25.9663 -4.66118 7.45228 -9.98808 13.5169 -1.51998 20.8898 17.4437 30.9787 3.6021 6.99272 16.6182 5.71374 1.6902 -3.10758 7.70304 6.71871 3.2473 -14.245 26.1844 19.0022 8.87112 -8.81743 -14.5927 -23.9577 -13.1045 12.3894 12.3929 10.5264 -21.3111 -7.51206 0.940073 -2.51739 1.93969 -4.59323 -0.383103 8.37344 7.03191 -14.6202 -0.343216 10.208 -39.0448 19.9625 -10.3954 13.352 -0.657703 -4.84363 -40.8753 1.15034 4.48921 -9.73573 -1.81712 9.7367 -6.85346 13.5043 1.93084 -0.92609 0.243658 4.59322 0.383103 -8.37344 6.86522 -6.38296 3.1011 5.42519 -42.6873 -13.2501 -6.71407 0.14295 2.12777 -11.095 -37.6883 -12.3315 -2.8239 -18.1291 0.692254 16.3568 -7.51904 0.239315 -0.698894 0.00169583 0.0271607 
8.57767 0 34.0345 0 0 -0 0.971067 88.2518 3.6838 -5.60505 3.74054 7.30228 2e-06 7.6294e-06 9.99999e-07 3.85351 6.83577 -2.78261 -0.026468 -0.105484 -0.0042 1.26982 1.78361 3.83149 4.85355 17.1934 5.02749 0.822933 0.954237 -0.155738 3.45713 17.0434 6.48957 0.555469 0.638206 -0.173225 5.14071 15.5862 8.66938 3.0926 -2.79359 0.426801 4.15253 8.55481 6.52393 3.52609 -6.59626 1.85731 3.29961 14.5422 11.6337 -0.850978 -11.9156 5.56176 -5.33341 -8.03212 12.8704 0.00971105 -19.5524 -14.0641 -0.595387 -13.7862 25.9663 -3.94735 6.11078 -8.30019 13.5169 -1.51998 20.8898 13.198 27.2095 3.49472 6.99272 16.6182 5.71374 1.78532 -2.44362 7.27427 6.71871 3.2473 -14.245 24.7347 17.8779 8.28385 -8.81743 -14.5927 -23.9577 -11.0165 10.7807 10.3999 10.5264 -21.3111 -7.51206 0.991468 -2.46451 2.24894 -4.59323 -0.383103 8.37344 5.50866 -12.2136 -1.17994 10.208 -39.0448 19.9625 -7.77982 10.0119 -0.722144 -4.84363 -40.8753 1.15034 3.4389 -7.7355 -0.943767 9.7367 -6.85346 13.5043 1.15406 -1.33335 0.210789 4.59322 0.383103 -8.37344 8.49094 -5.82227 1.45297 5.42519 -42.6873 -13.2501 -10.5884 0.111789 3.35814 -11.095 -37.6883 -12.3315 -4.41931 -17.6634 0.810466 16.3568 -7.51904 0.239315 0.95072 5.62241 0.362208 
